<svg version="1.1" id="Layer_1" xmlns="http://www.w3.org/2000/svg" xmlns:xlink="http://www.w3.org/1999/xlink" x="0px" y="0px"
	 width="100%" viewBox="0 0 496 496" enable-background="new 0 0 496 496" xml:space="preserve">
<path fill="#000000" opacity="1.000000" stroke="none" 
	d="
M463.327057,282.901093 
	C466.762970,290.421021 466.121918,297.242188 461.752625,303.800507 
	C460.963531,299.578766 461.965729,295.144501 460.101227,291.236877 
	C458.112244,290.837097 457.213745,291.981842 456.767456,293.187744 
	C453.594086,301.762390 447.407715,307.977600 440.857819,313.953278 
	C439.483337,315.207214 436.715912,316.340332 438.042542,318.567871 
	C439.571289,321.134827 442.675354,320.438507 444.829712,319.350159 
	C448.691437,317.399292 452.006317,314.577667 455.005493,311.393524 
	C456.202850,310.122314 457.077393,308.339569 459.489624,307.826721 
	C459.432770,311.095581 457.212860,312.990112 455.492981,314.899902 
	C444.251709,327.382507 430.060181,334.474335 413.620728,337.267609 
	C409.358521,337.991791 405.071136,338.510681 400.718506,338.185120 
	C394.681183,337.733551 389.214935,339.490723 384.102417,342.600464 
	C382.299469,343.697144 380.626373,345.139740 378.408752,345.258972 
	C377.245728,343.954956 378.757324,342.606567 378.122864,341.356049 
	C377.829559,341.285278 377.437347,341.050995 377.235474,341.162231 
	C371.009003,344.592651 364.854095,348.157562 358.563385,351.464386 
	C356.179504,352.717529 353.978668,354.169495 351.895142,355.818207 
	C350.489594,356.930450 349.741516,358.456207 350.596283,360.230164 
	C351.393005,361.883606 352.946411,361.859924 354.499878,361.592499 
	C357.315613,361.107788 360.130219,360.616608 363.082672,360.732330 
	C356.867859,365.766632 350.142212,369.261871 342.242645,370.356018 
	C324.173004,372.858826 306.049164,370.638519 287.958313,371.128296 
	C282.482178,371.276550 276.994507,371.308716 271.519592,371.144409 
	C237.441437,370.121796 203.352356,370.618439 169.269211,370.330750 
	C156.854584,370.225952 146.297180,362.765442 142.364700,351.022003 
	C140.890030,346.618225 139.823486,342.065155 138.782822,337.531494 
	C136.999496,329.762543 131.934647,327.096497 124.687370,330.644501 
	C117.326828,334.247986 109.893097,337.382904 101.678940,338.542664 
	C83.701180,341.081024 67.693443,336.536285 53.574516,325.337921 
	C45.870960,319.227844 40.018181,311.895264 37.565670,301.909454 
	C36.002232,295.543701 39.338463,290.435150 40.119019,284.712921 
	C41.809582,272.319458 51.926208,267.747650 61.040783,262.054535 
	C80.486671,249.908340 92.003433,231.297821 101.556847,211.208527 
	C115.506790,181.874039 135.670395,159.183167 166.914612,147.258148 
	C185.293793,140.243347 203.484634,133.276733 223.166702,130.555756 
	C245.694107,127.441444 267.700012,129.072021 289.236786,135.990631 
	C309.836060,142.608047 330.152496,150.130081 349.738708,159.340286 
	C368.524231,168.173996 381.843872,182.962616 391.138550,201.222076 
	C398.642181,215.963028 406.676483,230.192627 417.629150,242.760727 
	C424.845612,251.041550 433.958099,256.319916 443.237823,261.544769 
	C452.058929,266.511383 458.901215,273.295898 463.327057,282.901093 
M343.630676,231.199326 
	C343.862762,221.825577 340.766937,213.209000 337.672058,204.572403 
	C336.843231,202.259415 334.946564,199.847229 337.039032,197.329315 
	C339.130951,197.141739 340.096039,198.368378 340.844147,199.643845 
	C348.785522,213.183060 354.252045,227.235397 349.788910,243.336472 
	C349.445129,244.576767 349.299194,246.019287 349.566162,247.259094 
	C352.967682,263.055817 356.630432,278.726227 364.587769,293.090576 
	C371.549927,305.658447 381.049316,314.109406 395.820679,316.045685 
	C411.495331,318.100372 425.563477,314.744904 438.005493,304.936188 
	C440.780853,302.748199 442.938263,299.992188 444.633667,296.881805 
	C448.654419,289.505249 447.541992,283.486176 440.926025,278.427246 
	C437.360046,275.700531 433.670013,273.072815 429.782196,270.842834 
	C420.416656,265.470947 412.610962,258.344269 405.209778,250.572052 
	C393.557312,238.335495 385.783386,223.575363 377.520020,209.130356 
	C367.088898,190.895828 353.313599,176.163437 334.235992,166.829147 
	C332.448059,165.954346 330.544647,164.074524 328.515778,166.766968 
	C329.127655,170.462204 333.210297,173.303360 331.585052,177.697327 
	C328.959351,177.686554 327.965790,175.724594 326.671753,174.331375 
	C322.112274,169.422348 317.108215,165.082245 311.463654,161.441162 
	C296.145447,151.559952 279.226562,146.370438 261.239105,144.750504 
	C239.093491,142.756073 217.335800,143.994949 196.753036,153.792404 
	C186.595978,158.627228 177.267014,164.592712 168.718826,171.890976 
	C166.412827,173.859772 164.202911,176.839478 160.432358,175.568314 
	C159.557602,172.319763 163.336578,170.902481 162.809494,167.983322 
	C160.499527,166.693314 158.951218,168.408310 157.360123,169.363998 
	C147.049789,175.556778 138.810303,183.915253 131.965256,193.749786 
	C123.837502,205.427231 118.150978,218.450592 111.386490,230.876160 
	C101.327332,249.353607 89.132774,265.682434 69.487030,275.052094 
	C66.953705,276.260284 64.602577,277.941650 62.365208,279.661560 
	C56.493420,284.175354 55.082371,289.599731 57.760056,296.434296 
	C59.054688,299.738739 60.943630,302.681824 63.360733,305.240967 
	C79.937523,322.791840 108.706123,321.651428 124.612373,303.485779 
	C134.734940,291.925354 139.916458,278.326447 144.049713,263.980804 
	C145.261353,259.775452 145.845337,256.151642 142.771912,252.360901 
	C141.171127,250.386459 140.313065,247.603577 139.726562,245.046631 
	C135.996002,228.782806 141.854919,214.603531 149.695847,200.927155 
	C150.526398,199.478500 151.837921,198.288589 154.139160,199.313065 
	C155.078339,202.160065 153.463318,204.687347 152.416031,207.186798 
	C149.581924,213.950668 146.582474,220.669373 145.813736,228.045990 
	C145.026047,235.604614 144.843796,243.253052 150.979202,249.001648 
	C159.303391,256.801056 169.481171,261.136993 180.452560,263.817932 
	C194.756302,267.313141 209.344208,268.208496 223.979950,269.030518 
	C254.211349,270.728424 284.225067,269.871704 313.575897,261.612396 
	C328.822540,257.322021 341.081268,249.517654 343.630676,231.199326 
M311.886719,348.699890 
	C322.326141,340.589569 325.960938,329.685394 324.678436,316.911011 
	C324.288574,313.027588 322.148010,310.081726 318.272705,308.714874 
	C314.623566,307.427856 311.739258,308.943329 309.230347,311.380676 
	C306.604187,313.931915 304.173676,316.684662 301.546021,319.234283 
	C300.213409,320.527344 298.146454,322.014313 296.967377,319.693665 
	C294.730743,315.291534 291.866699,316.819611 288.596741,317.856903 
	C282.642426,319.745850 276.412018,321.106445 270.876038,317.134644 
	C267.970276,315.049866 265.168976,313.324585 261.665680,312.577240 
	C255.268463,311.212494 250.635681,307.529694 247.445480,301.755402 
	C245.071182,297.457916 243.928391,297.462189 241.299332,301.504181 
	C237.242233,307.741730 231.794540,311.640747 224.281342,312.417053 
	C222.768616,312.573364 221.440430,313.082001 220.225494,314.122406 
	C212.635010,320.622711 200.876923,320.951874 193.231674,314.919800 
	C191.766861,313.764099 190.244934,312.400696 191.167007,310.317322 
	C192.167068,308.057678 194.205505,307.963318 196.283524,308.666565 
	C199.277313,309.679688 202.248322,310.761353 205.218460,311.842834 
	C207.862411,312.805634 210.100845,312.297241 211.983887,310.165833 
	C213.830200,308.075989 214.164627,305.665344 213.267776,303.163361 
	C212.139740,300.016479 210.548080,297.081543 208.427231,294.465942 
	C206.005234,291.478882 203.977753,288.496826 203.559814,284.337738 
	C203.216599,280.922516 200.765640,278.174835 197.010483,277.729980 
	C193.438446,277.306854 192.874359,280.602875 191.826279,282.887817 
	C187.434845,292.461761 183.568649,302.189941 184.253571,313.061951 
	C184.370834,314.923279 184.159607,317.009613 182.033264,317.623962 
	C179.611435,318.323700 179.110565,315.980164 178.195328,314.511841 
	C176.876663,312.396301 175.894211,310.029968 174.354523,308.100922 
	C168.879089,301.240723 160.820114,302.346161 158.265396,310.716797 
	C155.017517,321.358673 155.386459,332.152252 160.423965,342.315460 
	C163.332382,348.183228 168.416611,349.925415 174.749664,348.079285 
	C179.086853,346.815002 182.252884,343.911346 185.422516,340.929016 
	C187.724564,338.763031 190.328171,337.109772 193.404099,339.456665 
	C196.333191,341.691528 199.691559,342.314545 203.190292,342.732330 
	C223.218079,345.123871 243.315674,346.420166 263.472473,345.550293 
	C270.568481,345.244110 278.120483,345.769104 284.608826,342.723114 
	C290.552094,339.932953 294.391663,341.413971 298.160583,345.770386 
	C301.736420,349.903625 306.077332,351.032654 311.886719,348.699890 
M340.902771,306.552490 
	C339.565582,305.673492 337.528931,305.139191 338.204834,302.971985 
	C338.714600,301.337433 340.489471,301.159760 341.945953,300.959045 
	C350.240051,299.816040 357.714630,308.205414 355.682739,316.323730 
	C353.691040,324.281464 347.688232,328.484314 338.446075,328.226562 
	C335.503143,328.144470 332.648529,327.902618 331.593048,331.545715 
	C330.854187,334.095886 330.078705,336.637329 329.419830,339.208344 
	C328.455200,342.972412 329.793884,345.264740 333.728271,346.130188 
	C339.295319,347.354767 344.666962,346.248749 350.003845,344.966553 
	C362.204041,342.035461 371.296082,331.574402 372.538086,319.297821 
	C372.772522,316.980499 372.159882,315.026428 370.469055,313.415833 
	C361.575989,304.944794 356.367004,294.150879 351.472015,283.174530 
	C347.752106,274.833099 345.608490,273.481293 336.568848,274.412170 
	C334.093597,274.667053 331.578217,275.008514 329.209229,275.730255 
	C321.838318,277.975861 315.291443,281.408783 312.135986,289.081604 
	C310.221222,293.737427 312.111725,298.773468 316.621429,299.407562 
	C325.358795,300.636108 330.294403,305.505646 332.442596,313.777405 
	C333.136780,316.450378 334.506104,318.677460 337.441254,319.503174 
	C341.308197,320.591034 345.482544,318.717804 346.879761,314.963135 
	C348.733856,309.980591 344.577850,308.778168 340.902771,306.552490 
M151.537415,277.033783 
	C150.087662,284.329834 144.663147,290.762726 146.463608,299.113464 
	C149.352097,299.476074 151.894028,298.736755 153.925598,297.621979 
	C159.754486,294.423462 166.230789,293.626068 172.500366,292.251587 
	C176.017532,291.480499 177.612595,289.812927 178.540009,286.660187 
	C181.664017,276.040009 179.861404,272.775482 169.033020,269.789734 
	C168.232498,269.569031 167.418945,269.388702 166.631210,269.129547 
	C157.367340,266.081909 154.778137,267.327179 151.537415,277.033783 
M302.984924,305.462921 
	C304.607208,303.426270 304.590912,301.184906 303.785553,298.859711 
	C301.559387,292.432465 299.546906,285.919037 297.021912,279.611053 
	C294.817169,274.103088 290.952728,273.844604 287.594360,278.810883 
	C282.919891,285.723389 281.177002,294.165009 275.993378,300.897064 
	C273.826172,303.711639 273.304993,307.403625 275.959564,310.627014 
	C278.722412,313.981781 281.961914,312.275085 285.130066,311.414124 
	C288.451111,310.511627 291.511810,307.528778 295.018280,308.759583 
	C298.694641,310.050049 300.686157,308.696655 302.984924,305.462921 
M389.291473,327.282867 
	C385.403137,326.890594 383.069733,329.059723 381.305084,332.147064 
	C380.641479,333.308075 379.847748,334.519928 380.753113,335.856567 
	C381.638153,337.163239 383.092804,337.137085 384.379547,336.805695 
	C388.583618,335.723022 392.846161,335.087830 397.148682,334.543823 
	C399.429260,334.255493 401.311676,332.828125 403.169159,330.385254 
	C398.285950,329.836761 394.102753,328.928558 389.291473,327.282867 
M171.362106,367.014282 
	C173.344330,366.972656 175.393173,367.153503 177.192505,366.145660 
	C179.737244,364.720337 180.006622,361.927551 177.811310,360.665070 
	C174.063889,358.510010 163.019714,359.773376 159.044739,362.872833 
	C161.804932,367.186218 166.135773,367.084564 171.362106,367.014282 
M95.051041,331.768372 
	C90.095245,326.852753 83.609299,330.242340 78.004929,328.725677 
	C77.124329,328.487366 76.111389,329.981567 75.994225,331.243683 
	C75.885437,332.415527 76.810150,332.970978 77.648773,333.515656 
	C81.454712,335.987579 91.106209,335.379181 95.051041,331.768372 
z"/>
<path fill="#000000" opacity="1.000000" stroke="none" 
	d="
M260.947388,227.666824 
	C264.816437,226.147202 266.454681,228.459030 267.640594,231.169937 
	C268.839081,233.909576 268.158051,236.474564 265.870331,238.356277 
	C262.548004,241.088974 258.667664,242.052811 254.685898,240.217422 
	C247.769608,237.029358 241.301544,236.950943 234.249619,240.426422 
	C228.631439,243.195267 222.816528,239.607864 222.758667,234.366135 
	C222.730240,231.790955 223.814026,229.660507 226.426819,229.112595 
	C229.150894,228.541336 228.992081,230.856293 229.353806,232.641510 
	C229.960876,235.637695 232.525192,235.194748 234.085297,234.368042 
	C241.194565,230.600784 248.102234,231.325897 255.185547,234.333725 
	C256.975037,235.093582 259.101288,235.092545 260.850525,233.618317 
	C261.838623,231.684006 259.194977,229.853760 260.947388,227.666824 
z"/>
<path fill="#000000" opacity="1.000000" stroke="none" 
	d="
M301.041748,225.205505 
	C300.402710,224.010666 299.932953,223.103424 300.756470,222.144989 
	C302.396881,221.175720 303.321442,223.539459 305.054932,222.960815 
	C305.233887,222.719788 305.670044,222.375885 305.774902,221.950363 
	C306.331085,219.692490 306.778046,217.407959 307.311676,215.144165 
	C308.278473,211.042603 306.999176,209.373367 302.689697,209.423111 
	C301.224731,209.440018 299.448547,210.235184 298.837067,208.312485 
	C298.183655,206.257858 299.657104,204.882065 301.210449,203.815414 
	C304.366089,201.648453 309.084351,202.197617 311.554047,205.421326 
	C315.656799,210.776703 316.989868,216.826340 314.351807,223.240112 
	C312.111938,228.685760 306.239746,229.590286 301.041748,225.205505 
z"/>
<path fill="#000000" opacity="1.000000" stroke="none" 
	d="
M188.680374,212.165985 
	C183.436462,207.061768 178.981689,208.167648 176.873276,214.965988 
	C176.129379,217.364548 175.899948,219.922653 175.312195,223.068527 
	C173.176346,216.886292 175.195190,208.391541 179.295303,205.202805 
	C181.754532,203.290192 184.572235,202.357819 187.649887,203.757660 
	C190.537994,205.071228 191.709259,207.561798 191.819565,210.567535 
	C191.895264,212.629654 191.300140,214.016373 188.680374,212.165985 
z"/>
</svg>